<mxfile host="65bd71144e">
    <diagram name="Architecture Diagram" id="0">
        <mxGraphModel dx="1273" dy="978" grid="1" gridSize="10" guides="1" tooltips="1" connect="1" arrows="1" fold="1" page="1" pageScale="1" pageWidth="850" pageHeight="1100" math="0" shadow="0">
            <root>
                <mxCell id="0"/>
                <mxCell id="1" parent="0"/>
                <mxCell id="client" value="Client" style="rounded=1;whiteSpace=wrap;html=1;strokeWidth=1;fillColor=#D9EAD3;gradientColor=none;strokeColor=#000000;shadow=0;labelBackgroundColor=none;" parent="1" vertex="1">
                    <mxGeometry x="10" y="40" width="100" height="60" as="geometry"/>
                </mxCell>
                <mxCell id="api_layer" value="API Layer" style="rounded=1;whiteSpace=wrap;html=1;strokeWidth=1;fillColor=#D9EAD3;gradientColor=none;strokeColor=#000000;shadow=0;labelBackgroundColor=none;" parent="1" vertex="1">
                    <mxGeometry x="150" y="40" width="120" height="60" as="geometry"/>
                </mxCell>
                <mxCell id="service_layer" value="Service Layer" style="rounded=1;whiteSpace=wrap;html=1;strokeWidth=1;fillColor=#D9EAD3;gradientColor=none;strokeColor=#000000;shadow=0;labelBackgroundColor=none;" parent="1" vertex="1">
                    <mxGeometry x="310" y="40" width="120" height="60" as="geometry"/>
                </mxCell>
                <mxCell id="database" value="Database (PostgreSQL)" style="rounded=1;whiteSpace=wrap;html=1;strokeWidth=1;fillColor=#D9EAD3;gradientColor=none;strokeColor=#000000;shadow=0;labelBackgroundColor=none;" parent="1" vertex="1">
                    <mxGeometry x="470" y="40" width="120" height="60" as="geometry"/>
                </mxCell>
                <mxCell id="redis_cache" value="Cache (Redis)" style="rounded=1;whiteSpace=wrap;html=1;strokeWidth=1;fillColor=#D9EAD3;gradientColor=none;strokeColor=#000000;shadow=0;labelBackgroundColor=none;" parent="1" vertex="1">
                    <mxGeometry x="470" y="120" width="120" height="60" as="geometry"/>
                </mxCell>
            </root>
        </mxGraphModel>
    </diagram>
</mxfile>